<svg width="56" height="75" viewBox="0 0 56 75" fill="none" xmlns="http://www.w3.org/2000/svg">
<g clip-path="url(#clip0_91_999)">
<path d="M55.1054 37.5904C55.1054 51.6554 44.0154 63.0574 30.3354 63.0574C16.6554 63.0574 5.56738 51.6574 5.56738 37.5904C5.56738 23.5234 16.6564 12.1234 30.3354 12.1234C44.0144 12.1234 55.1054 23.5244 55.1054 37.5904Z" fill="white"/>
<path d="M54.5753 66.3145C54.3802 64.6012 54.0352 62.9084 53.5443 61.2555C52.5603 57.9897 51.2483 54.8319 49.6283 51.8305C48.0235 48.8274 46.1373 45.9833 43.9953 43.3365C41.8558 40.6707 39.3856 38.2883 36.6443 36.2465C35.7983 35.6358 34.923 35.0641 34.0183 34.5315C33.6983 30.3065 33.5703 26.0615 33.5643 21.8195C33.5643 18.4735 33.6703 15.1265 33.8353 11.7825C34.0003 8.43845 34.2483 5.09345 34.6103 1.78245V1.77545C34.6174 1.70831 34.6117 1.64043 34.5933 1.57545C34.5673 1.48645 34.5473 1.42945 34.5213 1.35845C34.4953 1.28745 34.4703 1.22545 34.4403 1.15845C34.3797 1.01908 34.3071 0.885243 34.2233 0.758453C34.1235 0.606399 33.9999 0.471347 33.8573 0.358452L33.7183 0.267452C33.6512 0.23134 33.5809 0.201545 33.5083 0.178452C33.4839 0.169587 33.4588 0.162567 33.4333 0.157452L33.3903 0.148453H33.3673L33.2943 0.137451H33.1603C33.0286 0.141517 32.8991 0.173203 32.7803 0.230453C32.6826 0.274727 32.5909 0.331173 32.5073 0.398453C32.3782 0.505985 32.2624 0.628517 32.1623 0.763454C32.076 0.880504 31.9975 1.0031 31.9273 1.13045L31.8273 1.31545C31.7953 1.38145 31.7683 1.43545 31.7343 1.51545C31.7177 1.55758 31.7063 1.60157 31.7003 1.64645V1.65645C30.9003 7.71745 30.0783 13.7754 29.3183 19.8424L28.1663 28.9425L27.8103 31.8575C27.6883 31.8245 27.5683 31.7845 27.4463 31.7575C25.7797 31.3196 24.0687 31.0727 22.3463 31.0215C20.6271 30.9957 18.9101 31.156 17.2253 31.4995C15.5532 31.8676 13.9188 32.3901 12.3433 33.0605L11.1873 33.6054L10.6093 33.8795L10.0503 34.1875L8.93433 34.8075L7.86033 35.4925C5.03134 37.354 2.42031 39.5272 0.0763257 41.9715C0.0261675 42.0251 -0.00118459 42.0961 3.93755e-05 42.1695C0.00126334 42.2429 0.0309692 42.313 0.082887 42.3649C0.134805 42.4168 0.204871 42.4465 0.278283 42.4477C0.351696 42.449 0.422708 42.4216 0.476327 42.3715C2.84551 40.0263 5.46947 37.9534 8.29932 36.1915L9.36433 35.5494L10.4643 34.9715L11.0123 34.6815L11.5753 34.4225L12.7053 33.9125C14.2298 33.2901 15.8089 32.8114 17.4223 32.4825C19.0335 32.1792 20.6726 32.0508 22.3113 32.0995C23.9465 32.1719 25.5681 32.4313 27.1443 32.8725C27.3203 32.9195 27.4923 32.9785 27.6663 33.0305L27.0513 38.0494L25.9353 47.1495L24.8533 56.2565L23.7873 65.3665L22.7493 74.4785C22.7379 74.5682 22.7627 74.6589 22.8181 74.7304C22.8735 74.802 22.9551 74.8486 23.0448 74.86C23.1346 74.8714 23.2252 74.8466 23.2968 74.7912C23.3683 74.7358 23.4149 74.6542 23.4263 74.5645L24.6833 65.4785L25.9113 56.3915L27.1243 47.3015L28.3033 38.2015L28.9203 33.4435C30.3339 33.9697 31.6971 34.6223 32.9933 35.3935C33.1433 37.5935 33.3353 39.7935 33.6003 41.9855C33.9896 45.34 34.5641 48.6704 35.3213 51.9615C36.0669 55.2805 37.1274 58.5208 38.4883 61.6385C39.832 64.8301 41.7948 67.7238 44.2633 70.1525C45.548 71.3694 47.0275 72.3625 48.6403 73.0905C49.5346 73.5033 50.5239 73.6664 51.5033 73.5625L51.9033 73.4835C52.036 73.4453 52.1655 73.3964 52.2903 73.3374C52.4193 73.2868 52.5443 73.2267 52.6643 73.1575L53.0003 72.9125C53.2138 72.7455 53.4053 72.5523 53.5703 72.3374C53.7211 72.1284 53.8584 71.91 53.9813 71.6835C54.3748 70.8274 54.5973 69.9028 54.6363 68.9615C54.6939 68.079 54.6735 67.1933 54.5753 66.3145ZM32.8213 11.7335C32.6623 15.0925 32.5903 18.4555 32.5743 21.8185C32.5583 25.1815 32.6193 28.5455 32.7863 31.9085C32.8193 32.5735 32.8583 33.2385 32.8993 33.9035C31.6735 33.2451 30.3959 32.6879 29.0793 32.2375L29.4863 29.1005L30.6293 20.0005C31.3953 13.9625 32.0973 7.91645 32.8293 1.87245L32.8583 1.80545L32.9263 1.67245C32.9711 1.58866 33.0212 1.50783 33.0763 1.43045C33.1167 1.37464 33.1622 1.32275 33.2123 1.27545C33.2462 1.30768 33.2764 1.34357 33.3023 1.38245C33.3521 1.45511 33.3953 1.53209 33.4313 1.61245L33.4863 1.74545L33.5023 1.78845C33.1853 5.10945 32.9863 8.41645 32.8213 11.7335ZM53.1003 68.8515C53.0759 69.5908 52.9099 70.3186 52.6113 70.9955C52.4928 71.271 52.3074 71.5126 52.0718 71.6982C51.8362 71.8839 51.5579 72.0077 51.2623 72.0585C50.5655 72.1159 49.8658 71.9904 49.2323 71.6945C47.7786 71.04 46.4445 70.147 45.2853 69.0525C42.9604 66.7594 41.0938 64.0443 39.7853 61.0525C38.4263 58.03 37.3578 54.8852 36.5943 51.6604C35.8126 48.4206 35.207 45.1408 34.7803 41.8355C34.5243 39.9355 34.3203 38.0235 34.1523 36.1095C34.7357 36.4895 35.307 36.8868 35.8663 37.3015C38.4768 39.3233 40.8323 41.6543 42.8813 44.2435C44.9486 46.8301 46.7667 49.6065 48.3113 52.5354C49.8646 55.4529 51.1183 58.5203 52.0533 61.6905C52.5179 63.255 52.8475 64.8566 53.0383 66.4774C53.1303 67.2653 53.1517 68.0598 53.1023 68.8515H53.1003Z" fill="#28514F"/>
</g>
<defs>
<clipPath id="clip0_91_999">
<rect width="55.1053" height="74.7252" fill="white" transform="translate(0 0.137451)"/>
</clipPath>
</defs>
</svg>
