<svg width="40" height="41" viewBox="0 0 40 41" fill="none" xmlns="http://www.w3.org/2000/svg">
<path d="M16.417 26.9465H13.722V18.2675H16.422L16.417 26.9465ZM15.068 17.0835C14.7579 17.0849 14.4543 16.9943 14.1957 16.8231C13.9371 16.652 13.735 16.408 13.6151 16.122C13.4951 15.836 13.4627 15.5209 13.5218 15.2165C13.581 14.9121 13.7291 14.632 13.9474 14.4117C14.1657 14.1915 14.4444 14.0409 14.7483 13.979C15.0522 13.9172 15.3676 13.9468 15.6546 14.0642C15.9417 14.1816 16.1874 14.3815 16.3609 14.6386C16.5343 14.8957 16.6276 15.1984 16.629 15.5085C16.6293 15.9239 16.4654 16.3225 16.173 16.6176C15.8806 16.9126 15.4834 17.0801 15.068 17.0835ZM26.507 26.9465H23.815V22.7215C23.815 21.7145 23.795 20.4215 22.415 20.4215C21.015 20.4215 20.799 21.5155 20.799 22.6475V26.9465H18.107V18.2675H20.69V19.4515H20.728C20.9867 19.0093 21.3605 18.6456 21.8095 18.3991C22.2586 18.1525 22.7661 18.0324 23.278 18.0515C26.007 18.0465 26.507 19.8465 26.507 22.1795V26.9465Z" fill="#28514F"/>
</svg>
