<svg width="40" height="41" viewBox="0 0 40 41" fill="none" xmlns="http://www.w3.org/2000/svg">
<path d="M14.1235 14.5705H25.8765C26.2658 14.5716 26.6389 14.7267 26.9141 15.002C27.1894 15.2772 27.3445 15.6502 27.3455 16.0395V24.8545C27.3445 25.2438 27.1894 25.6168 26.9141 25.8921C26.6389 26.1674 26.2658 26.3225 25.8765 26.3235H14.1235C13.7343 26.3225 13.3612 26.1674 13.086 25.8921C12.8107 25.6168 12.6556 25.2438 12.6545 24.8545V16.0395C12.6556 15.6502 12.8107 15.2772 13.086 15.002C13.3612 14.7267 13.7343 14.5716 14.1235 14.5705Z" stroke="#28514F" stroke-width="2" stroke-linecap="round" stroke-linejoin="round"/>
<path d="M27.3455 16.0395L19.9995 21.1815L12.6545 16.0395" stroke="#28514F" stroke-width="2" stroke-linecap="round" stroke-linejoin="round"/>
</svg>
